<svg width="123" height="19" viewBox="0 0 123 19" fill="none" xmlns="http://www.w3.org/2000/svg">
<path d="M0.721591 18V0.545454H7.40341C8.66477 0.545454 9.71307 0.744318 10.5483 1.14204C11.3892 1.53409 12.017 2.07102 12.4318 2.75284C12.8523 3.43466 13.0625 4.20739 13.0625 5.07102C13.0625 5.78125 12.9261 6.3892 12.6534 6.89489C12.3807 7.39489 12.0142 7.80114 11.554 8.11364C11.0938 8.42614 10.5795 8.65057 10.0114 8.78693V8.95739C10.6307 8.99148 11.2244 9.18182 11.7926 9.52841C12.3665 9.86932 12.8352 10.3523 13.1989 10.9773C13.5625 11.6023 13.7443 12.358 13.7443 13.2443C13.7443 14.1477 13.5256 14.9602 13.0881 15.6818C12.6506 16.3977 11.9915 16.9631 11.1108 17.3778C10.2301 17.7926 9.12216 18 7.78693 18H0.721591ZM3.88352 15.358H7.28409C8.43182 15.358 9.25852 15.1392 9.7642 14.7017C10.2756 14.2585 10.5312 13.6903 10.5312 12.9972C10.5312 12.4801 10.4034 12.0142 10.1477 11.5994C9.89205 11.179 9.52841 10.8494 9.05682 10.6108C8.58523 10.3665 8.02273 10.2443 7.36932 10.2443H3.88352V15.358ZM3.88352 7.96875H7.01136C7.55682 7.96875 8.0483 7.86932 8.4858 7.67045C8.9233 7.46591 9.26705 7.17898 9.51705 6.80966C9.77273 6.43466 9.90057 5.99148 9.90057 5.48011C9.90057 4.80398 9.66193 4.24716 9.18466 3.80966C8.71307 3.37216 8.01136 3.15341 7.07955 3.15341H3.88352V7.96875ZM15.728 3.19602V0.545454H29.6541V3.19602H24.2592V18H21.1229V3.19602H15.728ZM46.5057 6.43466H43.3182C43.2273 5.91193 43.0597 5.44886 42.8153 5.04545C42.571 4.63636 42.267 4.28977 41.9034 4.00568C41.5398 3.72159 41.125 3.50852 40.6591 3.36648C40.1989 3.21875 39.7017 3.14489 39.1676 3.14489C38.2188 3.14489 37.3778 3.38352 36.6449 3.86079C35.9119 4.33239 35.3381 5.02557 34.9233 5.94034C34.5085 6.84943 34.3011 7.96023 34.3011 9.27273C34.3011 10.608 34.5085 11.733 34.9233 12.6477C35.3438 13.5568 35.9176 14.2443 36.6449 14.7102C37.3778 15.1705 38.2159 15.4006 39.1591 15.4006C39.6818 15.4006 40.1705 15.3324 40.625 15.196C41.0852 15.054 41.4972 14.8466 41.8608 14.5739C42.2301 14.3011 42.5398 13.9659 42.7898 13.5682C43.0455 13.1705 43.2216 12.7159 43.3182 12.2045L46.5057 12.2216C46.3864 13.0511 46.1278 13.8295 45.7301 14.5568C45.3381 15.2841 44.8239 15.9261 44.1875 16.483C43.5511 17.0341 42.8068 17.4659 41.9545 17.7784C41.1023 18.0852 40.1563 18.2386 39.1165 18.2386C37.5824 18.2386 36.2131 17.8835 35.0085 17.1733C33.804 16.4631 32.8551 15.4375 32.1619 14.0966C31.4688 12.7557 31.1222 11.1477 31.1222 9.27273C31.1222 7.39205 31.4716 5.78409 32.1705 4.44886C32.8693 3.10795 33.821 2.08239 35.0256 1.37216C36.2301 0.661931 37.5938 0.306818 39.1165 0.306818C40.0881 0.306818 40.9915 0.443181 41.8267 0.715908C42.6619 0.988636 43.4063 1.3892 44.0597 1.91761C44.7131 2.44034 45.25 3.08239 45.6705 3.84375C46.0966 4.59943 46.375 5.46307 46.5057 6.43466ZM52.3501 0.545454V18H49.2649V0.545454H52.3501ZM61.3182 18.2557C60.0057 18.2557 58.8722 17.983 57.9176 17.4375C56.9688 16.8864 56.2386 16.108 55.7273 15.1023C55.2159 14.0909 54.9602 12.9006 54.9602 11.5312C54.9602 10.1847 55.2159 9.00284 55.7273 7.9858C56.2443 6.96307 56.9659 6.16761 57.892 5.59943C58.8182 5.02557 59.9062 4.73864 61.1562 4.73864C61.9631 4.73864 62.7244 4.86932 63.4403 5.13068C64.1619 5.38636 64.7983 5.78409 65.3494 6.32386C65.9063 6.86364 66.3438 7.55114 66.6619 8.38636C66.9801 9.21591 67.1392 10.2045 67.1392 11.3523V12.2983H56.4091V10.2188H64.1818C64.1761 9.62784 64.0483 9.10227 63.7983 8.64205C63.5483 8.17614 63.1989 7.80966 62.75 7.54261C62.3068 7.27557 61.7898 7.14205 61.1989 7.14205C60.5682 7.14205 60.0142 7.29545 59.5369 7.60227C59.0597 7.90341 58.6875 8.30114 58.4205 8.79545C58.1591 9.28409 58.0256 9.82102 58.0199 10.4062V12.2216C58.0199 12.983 58.1591 13.6364 58.4375 14.1818C58.7159 14.7216 59.1051 15.1364 59.6051 15.4261C60.1051 15.7102 60.6903 15.8523 61.3608 15.8523C61.8097 15.8523 62.2159 15.7898 62.5795 15.6648C62.9432 15.5341 63.2585 15.3438 63.5256 15.0938C63.7926 14.8438 63.9943 14.5341 64.1307 14.1648L67.0114 14.4886C66.8295 15.25 66.483 15.9148 65.9716 16.483C65.4659 17.0455 64.8182 17.483 64.0284 17.7955C63.2386 18.1023 62.3352 18.2557 61.3182 18.2557ZM80.0959 8.36932L77.2834 8.67614C77.2038 8.39205 77.0646 8.125 76.8658 7.875C76.6726 7.625 76.4112 7.4233 76.0817 7.26989C75.7521 7.11648 75.3487 7.03977 74.8714 7.03977C74.2294 7.03977 73.6896 7.17898 73.2521 7.45739C72.8203 7.7358 72.6072 8.09659 72.6129 8.53977C72.6072 8.92045 72.7464 9.23011 73.0305 9.46875C73.3203 9.70739 73.7976 9.90341 74.4624 10.0568L76.6953 10.5341C77.9339 10.8011 78.8544 11.2244 79.4567 11.804C80.0646 12.3835 80.3714 13.142 80.3771 14.0795C80.3714 14.9034 80.13 15.6307 79.6527 16.2614C79.1811 16.8864 78.5249 17.375 77.6839 17.7273C76.843 18.0795 75.8771 18.2557 74.7862 18.2557C73.1839 18.2557 71.8942 17.9205 70.9169 17.25C69.9396 16.5739 69.3572 15.6335 69.1697 14.429L72.1783 14.1392C72.3146 14.7301 72.6044 15.1761 73.0476 15.4773C73.4908 15.7784 74.0675 15.929 74.7777 15.929C75.5107 15.929 76.0987 15.7784 76.5419 15.4773C76.9908 15.1761 77.2152 14.804 77.2152 14.3608C77.2152 13.9858 77.0703 13.6761 76.7805 13.4318C76.4964 13.1875 76.0533 13 75.451 12.8693L73.218 12.4006C71.9624 12.1392 71.0334 11.6989 70.4311 11.0795C69.8288 10.4545 69.5305 9.66477 69.5362 8.71023C69.5305 7.90341 69.7493 7.20455 70.1925 6.61364C70.6413 6.01705 71.2635 5.55682 72.0589 5.23295C72.8601 4.90341 73.7834 4.73864 74.8288 4.73864C76.3629 4.73864 77.5703 5.06534 78.451 5.71875C79.3374 6.37216 79.8857 7.25568 80.0959 8.36932ZM93.2678 8.36932L90.4553 8.67614C90.3757 8.39205 90.2365 8.125 90.0376 7.875C89.8445 7.625 89.5831 7.4233 89.2536 7.26989C88.924 7.11648 88.5206 7.03977 88.0433 7.03977C87.4013 7.03977 86.8615 7.17898 86.424 7.45739C85.9922 7.7358 85.7791 8.09659 85.7848 8.53977C85.7791 8.92045 85.9183 9.23011 86.2024 9.46875C86.4922 9.70739 86.9695 9.90341 87.6342 10.0568L89.8672 10.5341C91.1058 10.8011 92.0263 11.2244 92.6286 11.804C93.2365 12.3835 93.5433 13.142 93.549 14.0795C93.5433 14.9034 93.3018 15.6307 92.8246 16.2614C92.353 16.8864 91.6967 17.375 90.8558 17.7273C90.0149 18.0795 89.049 18.2557 87.9581 18.2557C86.3558 18.2557 85.0661 17.9205 84.0888 17.25C83.1115 16.5739 82.5291 15.6335 82.3416 14.429L85.3501 14.1392C85.4865 14.7301 85.7763 15.1761 86.2195 15.4773C86.6626 15.7784 87.2393 15.929 87.9496 15.929C88.6825 15.929 89.2706 15.7784 89.7138 15.4773C90.1626 15.1761 90.3871 14.804 90.3871 14.3608C90.3871 13.9858 90.2422 13.6761 89.9524 13.4318C89.6683 13.1875 89.2251 13 88.6229 12.8693L86.3899 12.4006C85.1342 12.1392 84.2053 11.6989 83.603 11.0795C83.0007 10.4545 82.7024 9.66477 82.7081 8.71023C82.7024 7.90341 82.9212 7.20455 83.3643 6.61364C83.8132 6.01705 84.4354 5.55682 85.2308 5.23295C86.032 4.90341 86.9553 4.73864 88.0007 4.73864C89.5348 4.73864 90.7422 5.06534 91.6229 5.71875C92.5092 6.37216 93.0575 7.25568 93.2678 8.36932ZM101.803 18.2557C100.525 18.2557 99.4169 17.9744 98.4794 17.4119C97.5419 16.8494 96.8146 16.0625 96.2976 15.0511C95.7862 14.0398 95.5305 12.858 95.5305 11.5057C95.5305 10.1534 95.7862 8.96875 96.2976 7.9517C96.8146 6.93466 97.5419 6.14489 98.4794 5.58239C99.4169 5.01989 100.525 4.73864 101.803 4.73864C103.082 4.73864 104.19 5.01989 105.127 5.58239C106.065 6.14489 106.789 6.93466 107.3 7.9517C107.817 8.96875 108.076 10.1534 108.076 11.5057C108.076 12.858 107.817 14.0398 107.3 15.0511C106.789 16.0625 106.065 16.8494 105.127 17.4119C104.19 17.9744 103.082 18.2557 101.803 18.2557ZM101.82 15.7841C102.513 15.7841 103.093 15.5937 103.559 15.2131C104.025 14.8267 104.371 14.3097 104.599 13.6619C104.832 13.0142 104.948 12.2926 104.948 11.4972C104.948 10.696 104.832 9.97159 104.599 9.32386C104.371 8.67045 104.025 8.15057 103.559 7.7642C103.093 7.37784 102.513 7.18466 101.82 7.18466C101.11 7.18466 100.519 7.37784 100.048 7.7642C99.5817 8.15057 99.2322 8.67045 98.9993 9.32386C98.772 9.97159 98.6584 10.696 98.6584 11.4972C98.6584 12.2926 98.772 13.0142 98.9993 13.6619C99.2322 14.3097 99.5817 14.8267 100.048 15.2131C100.519 15.5937 101.11 15.7841 101.82 15.7841ZM113.78 10.3295V18H110.695V4.90909H113.643V7.13352H113.797C114.098 6.40057 114.578 5.81818 115.237 5.38636C115.902 4.95455 116.723 4.73864 117.7 4.73864C118.604 4.73864 119.391 4.93182 120.061 5.31818C120.737 5.70455 121.26 6.2642 121.629 6.99716C122.004 7.73011 122.189 8.61932 122.183 9.66477V18H119.098V10.142C119.098 9.26705 118.871 8.58239 118.416 8.08807C117.967 7.59375 117.345 7.34659 116.55 7.34659C116.01 7.34659 115.53 7.46591 115.109 7.70455C114.695 7.9375 114.368 8.27557 114.129 8.71875C113.896 9.16193 113.78 9.69886 113.78 10.3295Z" fill="#0BA572"/>
</svg>
